<svg xmlns="http://www.w3.org/2000/svg" width="800" height="600" viewBox="0 0 800 600" fill="none">
  <path d="M400 120C513.071 120 605 211.929 605 325C605 438.071 513.071 530 400 530C286.929 530 195 438.071 195 325C195 211.929 286.929 120 400 120Z" fill="#FFF5F7" stroke="#FF90BC" stroke-width="5"/>
  <path d="M304 280H496C509.255 280 520 290.745 520 304V410C520 423.255 509.255 434 496 434H304C290.745 434 280 423.255 280 410V304C280 290.745 290.745 280 304 280Z" fill="white" stroke="#FF90BC" stroke-width="5"/>
  <path d="M400 230C425.405 230 446 209.405 446 184C446 158.595 425.405 138 400 138C374.595 138 354 158.595 354 184C354 209.405 374.595 230 400 230Z" fill="white" stroke="#FF90BC" stroke-width="5"/>
  <path d="M400 200C425.405 200 446 219.595 446 245V280H354V245C354 219.595 374.595 200 400 200Z" fill="white" stroke="#FF90BC" stroke-width="5"/>
  <path d="M400 340C413.255 340 424 350.745 424 364C424 377.255 413.255 388 400 388C386.745 388 376 377.255 376 364C376 350.745 386.745 340 400 340Z" fill="white" stroke="#FF90BC" stroke-width="5"/>
  <path d="M400 376C408.837 376 416 383.163 416 392V434H384V392C384 383.163 391.163 376 400 376Z" fill="white" stroke="#FF90BC" stroke-width="5"/>
</svg>